<svg width="21" height="21" viewBox="0 0 21 21" fill="none" xmlns="http://www.w3.org/2000/svg">
    <path d="M20.35 19.6665C20.35 19.9538 20.2358 20.2293 20.0327 20.4325C19.8295 20.6357 19.554 20.7498 19.2666 20.7498H1.93331C1.64599 20.7498 1.37044 20.6357 1.16728 20.4325C0.964112 20.2293 0.849976 19.9538 0.849976 19.6665V8.28064C0.849861 8.11555 0.887478 7.95262 0.959951 7.8043C1.03243 7.65597 1.13784 7.52617 1.26814 7.42481L9.93481 0.684306C10.125 0.536372 10.359 0.456055 10.6 0.456055C10.8409 0.456055 11.075 0.536372 11.2651 0.684306L19.9318 7.42481C20.0621 7.52617 20.1675 7.65597 20.24 7.8043C20.3125 7.95262 20.3501 8.11555 20.35 8.28064V19.6665ZM18.1833 18.5831V8.80931L10.6 2.91164L3.01664 8.80931V18.5831H18.1833Z"
          fill="#363D52"/>
</svg>
