<svg width="22" height="21" viewBox="0 0 22 21" fill="none" xmlns="http://www.w3.org/2000/svg">
    <path d="M2.33332 15.4167V20.8333H0.166656V0.250001H20.8995C20.9944 0.249841 21.0878 0.274642 21.1701 0.321918C21.2524 0.369193 21.3209 0.437282 21.3686 0.519359C21.4164 0.601437 21.4417 0.694619 21.4421 0.789566C21.4424 0.884513 21.4178 0.977889 21.3707 1.06033L17.5 7.83333L21.3707 14.6063C21.4178 14.6888 21.4424 14.7822 21.4421 14.8771C21.4417 14.972 21.4164 15.0652 21.3686 15.1473C21.3209 15.2294 21.2524 15.2975 21.1701 15.3447C21.0878 15.392 20.9944 15.4168 20.8995 15.4167H2.33332ZM2.33332 2.41667V13.25H18.1002L15.004 7.83333L18.1002 2.41667H2.33332Z"
          fill="#363D52"/>
</svg>
