<svg width="23" height="22" viewBox="0 0 23 22" fill="none" xmlns="http://www.w3.org/2000/svg">
    <path d="M16.1333 19.667V2.33366H3.13334V18.5837C3.13334 18.871 3.24748 19.1465 3.45064 19.3497C3.65381 19.5529 3.92936 19.667 4.21667 19.667H16.1333ZM19.3833 21.8337H4.21667C3.35472 21.8337 2.52807 21.4913 1.91858 20.8818C1.30908 20.2723 0.966675 19.4456 0.966675 18.5837V1.25033C0.966675 0.963008 1.08081 0.687458 1.28398 0.484293C1.48714 0.281129 1.76269 0.166992 2.05001 0.166992H17.2167C17.504 0.166992 17.7795 0.281129 17.9827 0.484293C18.1859 0.687458 18.3 0.963008 18.3 1.25033V8.83366H22.6333V18.5837C22.6333 19.4456 22.2909 20.2723 21.6814 20.8818C21.0719 21.4913 20.2453 21.8337 19.3833 21.8337ZM18.3 11.0003V18.5837C18.3 18.871 18.4141 19.1465 18.6173 19.3497C18.8205 19.5529 19.096 19.667 19.3833 19.667C19.6707 19.667 19.9462 19.5529 20.1494 19.3497C20.3525 19.1465 20.4667 18.871 20.4667 18.5837V11.0003H18.3ZM5.30001 4.50033H11.8V11.0003H5.30001V4.50033ZM7.46667 6.66699V8.83366H9.63334V6.66699H7.46667ZM5.30001 12.0837H13.9667V14.2503H5.30001V12.0837ZM5.30001 15.3337H13.9667V17.5003H5.30001V15.3337Z"
          fill="#363D52"/>
</svg>
